<svg xmlns="http://www.w3.org/2000/svg" enable-background="new 0 0 32 32" viewBox="0 0 32 32"><path d="M30.36816,7.64258c-0.70996-0.49902-1.62109-0.62402-2.4375-0.3291L22.8869,9.12634c-0.55396-1.43622-1.93982-2.46228-3.56952-2.46228H4.33301C2.21973,6.66406,0.5,8.38379,0.5,10.49707v11.00586c0,2.11328,1.71973,3.83301,3.83301,3.83301h14.98438c1.6297,0,3.0155-1.02612,3.56946-2.46228l5.04382,1.81287c0.00098,0.00098,0.00195,0.00098,0.00195,0.00098c0.29199,0.10449,0.5957,0.15625,0.89844,0.15625c0.54395,0,1.08203-0.16602,1.53711-0.48633C31.07715,23.8584,31.5,23.04297,31.5,22.17676V9.82324C31.5,8.95703,31.07715,8.1416,30.36816,7.64258z M20.15137,21.50293c0,0.45898-0.37402,0.83301-0.83398,0.83301H4.33301c-0.45898,0-0.83301-0.37402-0.83301-0.83301V10.49707c0-0.45898,0.37402-0.83301,0.83301-0.83301h14.98438c0.45996,0,0.83398,0.37402,0.83398,0.83301V21.50293z M28.5,21.70313l-5.34863-1.92188v-7.5625L28.5,10.29688V21.70313z"/></svg>